<?xml version="1.0" encoding="utf-8"?>
<!-- Generator: Adobe Illustrator 24.1.2, SVG Export Plug-In . SVG Version: 6.00 Build 0)  -->
<svg version="1.1" id="Layer_1" xmlns="http://www.w3.org/2000/svg" xmlns:xlink="http://www.w3.org/1999/xlink" x="0px" y="0px"
	 viewBox="0 0 820 312" style="enable-background:new 0 0 820 312;" xml:space="preserve">
<style type="text/css">
	.st0{display:none;}
	.st1{display:inline;fill:#ED1C24;}
	.st2{display:inline;}
	.st3{fill:#FFFFFF;}
	.st4{font-family:'SFProDisplay-Thin';}
	.st5{font-size:10.24px;}
	.st6{fill:none;}
	.st7{font-family:'MyriadPro-Regular';}
	.st8{font-size:28px;}
</style>
<g id="Layer_1_1_">
	<g>
		<path d="M300.2,178.5h-27.6v-42.7h8.9v35.3h18.7V178.5L300.2,178.5z"/>
		<path d="M333.4,168.8c-0.9,6.2-6.6,10.4-14.5,10.4c-9.8,0-15.6-6.3-15.6-16.4s5.9-16.7,15.3-16.7c9.2,0,15.1,6.3,15.1,15.9v2.6
			h-21.9v0.5c0,4.5,2.9,7.6,7.3,7.6c3.2,0,5.6-1.6,6.4-4L333.4,168.8L333.4,168.8z M311.9,159.3h13.5c-0.2-4.1-2.8-6.8-6.7-6.8
			C314.9,152.5,312.2,155.3,311.9,159.3z"/>
		<path d="M336.9,169.4c0-5.8,4.4-9.1,12.4-9.6l8-0.5v-2.1c0-3-2.1-4.7-5.3-4.7c-3.2,0-5.3,1.6-5.7,3.9h-7.9
			c0.3-6.2,5.6-10.4,14-10.4c8.1,0,13.4,4.2,13.4,10.6v21.8h-8.4v-4.9h-0.2c-1.8,3.4-5.7,5.4-9.7,5.4
			C341.5,179,336.9,175.1,336.9,169.4z M357.2,166.9v-2.3l-6.7,0.4c-3.2,0.2-5.1,1.7-5.1,3.9c0,2.4,2,3.9,4.9,3.9
			C354,172.8,357.2,170.3,357.2,166.9z"/>
		<path d="M371.2,146.8h8.4v5.7h0.2c1.1-4,3.8-6.2,7.6-6.2c1,0,1.9,0.1,2.5,0.3v7.6c-0.7-0.3-1.9-0.5-3.1-0.5
			c-4.3,0-6.8,2.6-6.8,7.1v17.7h-8.7L371.2,146.8L371.2,146.8z"/>
		<path d="M393.4,146.8h8.4v5.6h0.2c1.7-3.9,5-6.3,9.9-6.3c7,0,11,4.4,11,11.9v20.5h-8.7v-18.7c0-4.1-2-6.5-5.8-6.5s-6.3,2.8-6.3,7
			v18.2h-8.7V146.8L393.4,146.8z"/>
		<path d="M428.2,138c0-2.5,2-4.4,4.5-4.4s4.5,2,4.5,4.4s-2,4.4-4.5,4.4C430.2,142.5,428.2,140.4,428.2,138z M428.5,146.8h8.7v31.8
			h-8.7V146.8z"/>
		<path d="M442.9,146.8h8.4v5.6h0.2c1.7-3.9,5-6.3,9.9-6.3c7,0,11,4.4,11,11.9v20.5h-8.7v-18.7c0-4.1-2-6.5-5.8-6.5s-6.3,2.8-6.3,7
			v18.2h-8.7V146.8L442.9,146.8z"/>
		<path d="M477.6,180.8h8.5c0.7,2.2,3.2,3.7,6.5,3.7c4.5,0,7-2.5,7-6.1v-5.6h-0.2c-1.5,3.4-5.2,5.7-9.8,5.7c-7.8,0-12.9-6-12.9-15.9
			c0-10.1,5-16.3,13-16.3c4.6,0,8.1,2.4,9.8,6h0.1v-5.5h8.5v31.3c0,7.6-6.3,12.4-15.8,12.4C484,190.5,478.4,186.4,477.6,180.8z
			 M499.5,162.6c0-5.7-2.8-9.4-7.1-9.4c-4.3,0-7,3.6-7,9.4s2.7,9.2,7,9.2C496.9,171.8,499.5,168.3,499.5,162.6z"/>
	</g>
	<g>
		<path d="M529,133.9c-3.1,4-5.8,5.6-9.2,5.6c-5.3-0.1-9.2-3.8-9.2-9s3.9-9,9.2-9c3.4,0,6.1,1.6,9.3,5.6c3-3.9,5.8-5.6,9.2-5.6
			c5.3,0,9.1,3.8,9.1,8.9c0,5.2-3.9,9-9.2,9C534.8,139.5,532.2,137.9,529,133.9z M515.3,130.5c0,2.6,2,4.5,4.6,4.5
			c2.1,0,3.9-1.3,6.3-4.5c-2.7-3.3-4.3-4.5-6.3-4.5C517.3,126,515.3,127.9,515.3,130.5z M538,126c-2.2,0-4,1.3-6.4,4.5
			c2.7,3.4,4.3,4.5,6.3,4.5c2.6,0,4.6-1.9,4.6-4.5C542.5,127.9,540.7,126,538,126z"/>
	</g>
</g>
<g id="Layer_2_1_" class="st0">
	<rect x="45.3" y="23" class="st1" width="26.8" height="19.5"/>
	<g class="st2">
		<path class="st3" d="M45.3,35.4c0-4.3,2.4-7.1,5.9-7.1c2.6,0,4.6,1.7,5.2,3.9l0,0v-9h1v19.2h-1v-3.7l0,0c-0.6,2.2-2.7,3.9-5.2,3.9
			C47.7,42.5,45.3,39.6,45.3,35.4z M46.3,35.3c0,3.7,2.1,6.2,5,6.2c3,0,5.1-2.5,5.1-6.2s-2.1-6.2-5.1-6.2
			C48.4,29.1,46.3,31.6,46.3,35.3z"/>
		<path class="st3" d="M71.8,38.4c-0.5,2.3-2.6,4.1-5.7,4.1c-3.8,0-6.2-2.7-6.2-7.1c0-4.3,2.4-7.2,6.1-7.2c3.6,0,5.9,2.7,5.9,6.7
			v0.6h-11v0.1c0,3.8,2,6,5.1,6c2.5,0,4.2-1.4,4.6-3.2H71.8L71.8,38.4z M61,34.7h9.9c0-3.3-2-5.5-4.9-5.5
			C63.1,29.1,61.2,31.4,61,34.7z"/>
		<path d="M83.4,33.3c-0.2-1.5-1.2-2.6-2.8-2.6c-1.9,0-3.1,1.6-3.1,4.4s1.2,4.4,3.1,4.4c1.6,0,2.6-0.9,2.8-2.5H87
			c-0.2,3.4-2.7,5.5-6.5,5.5c-4.3,0-7-2.8-7-7.5c0-4.6,2.7-7.4,7-7.4c3.9,0,6.3,2.4,6.5,5.6L83.4,33.3L83.4,33.3z"/>
		<path d="M88.4,35.1c0-4.6,2.8-7.4,7.1-7.4c4.3,0,7.1,2.8,7.1,7.4c0,4.7-2.8,7.5-7.1,7.5S88.4,39.8,88.4,35.1z M98.6,35.1
			c0-2.8-1.2-4.5-3.1-4.5s-3.1,1.6-3.1,4.5s1.2,4.5,3.1,4.5C97.4,39.6,98.6,38,98.6,35.1z"/>
		<path d="M104.6,28h3.8v2.5h0.1c0.8-1.8,2.3-2.8,4.5-2.8c3.2,0,5,2,5,5.3v9.2h-3.9v-8.4c0-1.9-0.9-2.9-2.6-2.9s-2.9,1.3-2.9,3.1
			v8.2h-3.9L104.6,28L104.6,28z"/>
		<path d="M128.4,42.3H124L119.1,28h4.2l3,10.9h0.1l3-10.9h4.1L128.4,42.3z"/>
		<path d="M133.8,35.1c0-4.6,2.8-7.4,7.1-7.4c4.3,0,7.1,2.8,7.1,7.4c0,4.7-2.8,7.5-7.1,7.5S133.8,39.8,133.8,35.1z M144,35.1
			c0-2.8-1.2-4.5-3.1-4.5s-3.1,1.6-3.1,4.5s1.2,4.5,3.1,4.5C142.7,39.6,144,38,144,35.1z"/>
		<path d="M150,23h3.9v19.2H150V23z"/>
		<path d="M169.7,42.3h-3.8v-2.6h-0.1c-0.7,1.8-2.1,2.8-4.3,2.8c-3.1,0-5.1-2-5.1-5.3V28h3.9v8.4c0,1.9,0.9,2.9,2.7,2.9
			c1.7,0,2.8-1.2,2.8-3.1V28h3.9V42.3z"/>
		<path d="M177.2,24.7V28h2.6v2.9h-2.6v6.8c0,1.1,0.5,1.6,1.7,1.6c0.3,0,0.7,0,0.9-0.1v2.9c-0.4,0.1-1.1,0.2-1.9,0.2
			c-3.4,0-4.7-1.1-4.7-3.9v-7.5h-2V28h2v-3.3H177.2L177.2,24.7z"/>
		<path d="M194.8,37.9c-0.4,2.8-3,4.7-6.5,4.7c-4.4,0-7-2.8-7-7.4s2.7-7.5,6.9-7.5c4.2,0,6.8,2.8,6.8,7.2v1.2h-9.9v0.2
			c0,2,1.3,3.4,3.3,3.4c1.4,0,2.5-0.7,2.9-1.8L194.8,37.9L194.8,37.9z M185.1,33.6h6.1c-0.1-1.8-1.3-3.1-3-3.1
			C186.5,30.6,185.2,31.9,185.1,33.6z"/>
		<path d="M196.4,35.1c0-4.5,2.3-7.3,5.9-7.3c2.1,0,3.7,1.1,4.4,2.7h0.1v-7.4h3.9v19.2h-3.8v-2.5h-0.1c-0.7,1.6-2.3,2.7-4.5,2.7
			C198.7,42.5,196.4,39.7,196.4,35.1z M200.4,35.1c0,2.6,1.2,4.2,3.2,4.2c1.9,0,3.2-1.6,3.2-4.2s-1.2-4.3-3.2-4.3
			C201.6,30.9,200.4,32.5,200.4,35.1z"/>
		<path d="M213.6,40.3c0-1.2,0.9-2.1,2.1-2.1s2.1,0.9,2.1,2.1s-1,2.1-2.1,2.1C214.5,42.4,213.6,41.5,213.6,40.3z"/>
	</g>
	<text transform="matrix(1 0 0 1 70.9122 54.886)" class="st2 st4 st5">voicing the signals that matter</text>
</g>
<rect x="272.6" y="194.5" class="st6" width="274.7" height="47"/>
<text transform="matrix(1 0 0 1 308.9359 214.3799)" class="st7 st8">learningloop.org</text>
</svg>
