<svg id="Layer_1" data-name="Layer 1" xmlns="http://www.w3.org/2000/svg" viewBox="0 0 5438.34 1365.32"><defs><style>.cls-1{fill:#fff;}</style></defs><g id="Layer_1-2" data-name="Layer 1"><path class="cls-1" d="M547.1,1128.54H0V282.39H177.11V981.94h370Z"/><path class="cls-1" d="M1202.18,936.12c-18.8,123.18-131.4,205.82-286.78,205.82-193.55,0-309.64-123.75-309.64-324.84,0-200.53,117.32-330.69,303.11-330.69,183,0,298.48,123.74,298.48,314.93v52.13H774v10.58c0,89.74,56.86,151.33,144.24,151.33,62.71,0,110.79-31.07,126.67-79.15h157.3ZM775.9,748.53h266.85c-3.49-80.28-55.74-135.45-132-135.45C835.68,613.08,781.75,669.94,775.9,748.53Z"/><path class="cls-1" d="M1271.42,947.94c0-114.4,87.94-180.6,244.56-190l158.31-9.35V707c0-58.66-41.09-92.67-105.5-92.67-64,0-104.38,31.64-112.6,78h-156.5c6.41-122,110.23-205.83,276.76-205.83,161.23,0,266.17,83.32,266.17,209.88v432.14h-165.4v-96.16h-3.49c-35.13,66.89-113.15,106.18-191.75,106.18C1362.29,1138.45,1271.42,1061.09,1271.42,947.94Zm402.76-49.88V852.34l-132.53,8.22c-64,4.73-100.32,33.44-100.32,78,0,46.95,38.73,76.23,96.72,76.23C1612.7,1014.71,1674.18,966.06,1674.18,898.06Z"/><path class="cls-1" d="M1952.85,499.92h165.4V613.08h3.49c22.3-79.72,75.67-123.18,149.53-123.18,19.93,0,36.93,2.92,48.64,6.42V647c-14.08-5.86-37.5-10-62.16-10-84.44,0-133.65,51.57-133.65,140.19v351.18H1952.84V499.92Z"/><path class="cls-1" d="M2389.72,499.92h165.4V612h3.5c33.44-78,99.64-123.75,196.48-123.75,139.5,0,218.09,87.94,218.09,235.1v405.23H2801.94V759.12c0-82.09-38.73-129-115.52-129S2561,686.38,2561,767.9v360.64H2389.73V499.92Z"/><path class="cls-1" d="M3080.49,326.86c0-48.64,39.3-87.94,89.17-87.94s89.18,39.3,89.18,87.94c0,48.08-39.3,87.94-89.18,87.94S3080.49,374.94,3080.49,326.86Zm4.17,173.06h171.25v628.62H3084.66Z"/><path class="cls-1" d="M3369.64,499.92H3535V612h3.49c33.44-78,99.65-123.75,196.48-123.75,139.51,0,218.1,87.94,218.1,235.1v405.23H3781.85V759.12c0-82.09-38.73-129-115.52-129S3540.9,686.38,3540.9,767.9v360.64H3369.64V499.92Z"/><path class="cls-1" d="M4058.05,1173H4225.7c13.51,43.35,62.71,72.74,127.8,72.74,88.5,0,137.82-48.64,137.82-121.38V1014.14h-3.49c-29.28,66.88-103.25,112.6-194.12,112.6-153.58,0-255-118.45-255-314.93,0-199.41,98.52-321.91,258-321.91,90.3,0,161.23,47.52,194.12,119.58h2.92V499.81h168.89v619.83c0,149.52-125.43,245.68-313.68,245.68C4183.59,1365.33,4071.55,1285.05,4058.05,1173Zm433.94-360c0-113.16-54.5-185.89-140.19-185.89-84.44,0-137.81,71.5-137.81,185.89,0,115,52.8,181.73,137.81,181.73C4437.49,994.78,4492,926.77,4492,813.05Z"/><path class="cls-1" d="M5073,244.89c-61.81,78.37-114.84,110.24-182.63,110.24-104.26,0-180.94-74.54-180.94-176.67C4709.4,75.89,4787,0,4891.24,0c67.79,0,120.82,31.75,183.53,111C5134.9,33.44,5189.17.79,5257.4.79c104.72,0,180.94,75,180.94,176.77,0,102.12-77.58,178.47-181.84,178.47C5190,355.91,5137.83,324.61,5073,244.89ZM4804.32,178c0,50.9,39.41,88.95,91.54,88.95,42.34,0,77.13-25,125.44-89.4-52.93-66.09-84.79-88.95-125.44-88.95C4843.73,88.5,4804.32,127.12,4804.32,178ZM5252.23,88.5c-42.78,0-78.37,25.44-125.88,89.85,53.82,66.54,85.12,88.61,125.43,88.61,52.13,0,91.54-38.5,91.54-89.4S5304.36,88.5,5252.23,88.5Z"/></g></svg>