<?xml version="1.0" encoding="utf-8"?>
<!-- Generator: Adobe Illustrator 24.1.2, SVG Export Plug-In . SVG Version: 6.00 Build 0)  -->
<svg version="1.1" xmlns="http://www.w3.org/2000/svg" xmlns:xlink="http://www.w3.org/1999/xlink" x="0px" y="0px"
	 viewBox="0 0 482.99 96.19" style="enable-background:new 0 0 482.99 96.19;" xml:space="preserve">
<style type="text/css">
	.st0{display:none;}
	.st1{display:inline;fill:#ED1C24;}
	.st2{display:inline;}
	.st3{fill:#FFFFFF;}
</style>
<g id="Layer_1">
	<g>
		<path d="M48.59,75.15H0V0h15.73v62.13h32.86V75.15z"/>
		<path d="M106.76,58.07C105.1,69,95.1,76.35,81.3,76.35c-17.19,0-27.5-10.99-27.5-28.85c0-17.81,10.42-29.37,26.92-29.37
			c16.25,0,26.51,10.99,26.51,27.97v4.63H68.75v0.94c0,7.97,5.05,13.44,12.81,13.44c5.57,0,9.84-2.76,11.25-7.03H106.76z M68.9,41.4
			h23.7c-0.31-7.13-4.95-12.03-11.72-12.03C74.22,29.37,69.42,34.42,68.9,41.4z"/>
		<path d="M112.91,59.11c0-10.16,7.81-16.04,21.72-16.87l14.06-0.83v-3.7c0-5.21-3.65-8.23-9.37-8.23c-5.68,0-9.27,2.81-10,6.93
			h-13.9c0.57-10.83,9.79-18.28,24.58-18.28c14.32,0,23.64,7.4,23.64,18.64v38.38h-14.69v-8.54h-0.31
			c-3.12,5.94-10.05,9.43-17.03,9.43C120.99,76.03,112.91,69.16,112.91,59.11z M148.69,54.68v-4.06l-11.77,0.73
			c-5.68,0.42-8.91,2.97-8.91,6.93c0,4.17,3.44,6.77,8.59,6.77C143.22,65.05,148.69,60.72,148.69,54.68z"/>
		<path d="M173.43,19.32h14.69v10.05h0.31c1.98-7.08,6.72-10.94,13.28-10.94c1.77,0,3.28,0.26,4.32,0.57v13.38
			c-1.25-0.52-3.33-0.89-5.52-0.89c-7.5,0-11.87,4.58-11.87,12.45v31.19h-15.21V19.32z"/>
		<path d="M212.23,19.32h14.69v9.95h0.31c2.97-6.93,8.85-10.99,17.45-10.99c12.39,0,19.37,7.81,19.37,20.88v35.99h-15.21V42.34
			c0-7.29-3.44-11.46-10.26-11.46s-11.14,5-11.14,12.24v32.03h-15.21V19.32z"/>
		<path d="M273.59,3.96c0-4.32,3.49-7.81,7.92-7.81s7.92,3.49,7.92,7.81c0,4.27-3.49,7.81-7.92,7.81S273.59,8.23,273.59,3.96z
			 M273.95,19.32h15.21v55.83h-15.21V19.32z"/>
		<path d="M299.26,19.32h14.69v9.95h0.31c2.97-6.93,8.85-10.99,17.45-10.99c12.39,0,19.37,7.81,19.37,20.88v35.99h-15.21V42.34
			c0-7.29-3.44-11.46-10.26-11.46s-11.14,5-11.14,12.24v32.03h-15.21V19.32z"/>
		<path d="M360.41,79.11h14.89c1.2,3.85,5.57,6.46,11.35,6.46c7.86,0,12.24-4.32,12.24-10.78v-9.79h-0.31
			c-2.6,5.94-9.17,10-17.24,10c-13.64,0-22.65-10.52-22.65-27.97c0-17.71,8.75-28.59,22.91-28.59c8.02,0,14.32,4.22,17.24,10.62
			h0.26v-9.74h15v55.05c0,13.28-11.14,21.82-27.86,21.82C371.55,96.19,361.61,89.05,360.41,79.11z M398.95,47.13
			c0-10.05-4.84-16.51-12.45-16.51c-7.5,0-12.24,6.35-12.24,16.51c0,10.21,4.69,16.14,12.24,16.14
			C394.1,63.27,398.95,57.23,398.95,47.13z"/>
	</g>
	<g>
		<path d="M450.55-3.32c-5.49,6.96-10.2,9.79-16.22,9.79c-9.26,0-16.07-6.62-16.07-15.69c0-9.11,6.89-15.85,16.15-15.85
			c6.02,0,10.73,2.82,16.3,9.86c5.34-6.89,10.16-9.79,16.22-9.79c9.3,0,16.07,6.66,16.07,15.7c0,9.07-6.89,15.85-16.15,15.85
			C460.94,6.54,456.31,3.75,450.55-3.32z M426.69-9.27c0,4.52,3.5,7.9,8.13,7.9c3.76,0,6.85-2.22,11.14-7.94
			c-4.7-5.87-7.53-7.9-11.14-7.9C430.19-17.21,426.69-13.79,426.69-9.27z M466.47-17.21c-3.8,0-6.96,2.26-11.18,7.98
			c4.78,5.91,7.56,7.87,11.14,7.87c4.63,0,8.13-3.42,8.13-7.94C474.56-13.82,471.1-17.21,466.47-17.21z"/>
	</g>
</g>
<g id="Layer_2" class="st0">
	<rect x="-381.55" y="-201.82" class="st1" width="47.1" height="34.36"/>
	<g class="st2">
		<path class="st3" d="M-381.55-180.19c0-7.5,4.27-12.56,10.36-12.56c4.52,0,8.04,2.98,9.12,6.77h0.05v-15.84h1.83V-168h-1.71v-6.54
			h-0.07c-1.12,3.94-4.66,6.91-9.19,6.91C-377.26-167.62-381.55-172.69-381.55-180.19z M-379.72-180.21
			c0,6.54,3.61,10.95,8.79,10.95c5.23,0,8.93-4.45,8.93-10.92s-3.7-10.92-8.93-10.92C-376.11-191.11-379.72-186.72-379.72-180.21z"
			/>
		<path class="st3" d="M-334.96-174.82c-0.82,4.12-4.52,7.2-9.96,7.2c-6.63,0-10.88-4.66-10.88-12.54c0-7.57,4.24-12.59,10.69-12.59
			c6.3,0,10.45,4.76,10.45,11.84v1.03h-19.29v0.09c0,6.63,3.59,10.55,9.05,10.55c4.48,0,7.38-2.39,8.11-5.58H-334.96z
			 M-353.92-181.4h17.39c-0.02-5.77-3.47-9.73-8.6-9.73C-350.19-191.13-353.66-187.22-353.92-181.4z"/>
		<path d="M-314.5-183.77c-0.4-2.65-2.16-4.52-4.97-4.52c-3.38,0-5.48,2.86-5.48,7.71c0,4.95,2.11,7.76,5.51,7.76
			c2.74,0,4.52-1.64,4.95-4.38h6.38c-0.35,5.93-4.78,9.75-11.39,9.75c-7.57,0-12.38-4.92-12.38-13.12c0-8.06,4.8-13.08,12.33-13.08
			c6.8,0,11.11,4.2,11.41,9.89H-314.5z"/>
		<path d="M-305.73-180.58c0-8.13,4.92-13.08,12.45-13.08s12.45,4.92,12.45,13.08c0,8.27-4.85,13.12-12.45,13.12
			S-305.73-172.33-305.73-180.58z M-287.8-180.56c0-4.99-2.16-7.88-5.48-7.88s-5.51,2.88-5.51,7.88c0,5.04,2.13,7.88,5.51,7.88
			C-289.93-172.69-287.8-175.52-287.8-180.56z"/>
		<path d="M-277.32-193.12h6.61v4.48h0.14c1.34-3.12,3.98-4.95,7.85-4.95c5.58,0,8.72,3.52,8.72,9.4v16.2h-6.84v-14.77
			c0-3.28-1.55-5.16-4.62-5.16s-5.02,2.25-5.02,5.51V-168h-6.84V-193.12z"/>
		<path d="M-235.44-168h-7.73l-8.7-25.12h7.34l5.23,19.08h0.14l5.2-19.08h7.15L-235.44-168z"/>
		<path d="M-226.07-180.58c0-8.13,4.92-13.08,12.45-13.08s12.45,4.92,12.45,13.08c0,8.27-4.85,13.12-12.45,13.12
			S-226.07-172.33-226.07-180.58z M-208.14-180.56c0-4.99-2.16-7.88-5.48-7.88s-5.51,2.88-5.51,7.88c0,5.04,2.13,7.88,5.51,7.88
			C-210.27-172.69-208.14-175.52-208.14-180.56z"/>
		<path d="M-197.5-201.82h6.84V-168h-6.84V-201.82z"/>
		<path d="M-162.83-168h-6.61v-4.52h-0.14c-1.24,3.16-3.73,4.99-7.52,4.99c-5.44,0-9.05-3.54-9.05-9.4v-16.2h6.84v14.77
			c0,3.35,1.66,5.13,4.69,5.13c3.05,0,4.95-2.18,4.95-5.51v-14.39h6.84V-168z"/>
		<path d="M-149.71-198.91v5.79h4.64v5.16h-4.64v12.02c0,1.92,0.94,2.84,2.95,2.84c0.61,0,1.24-0.05,1.66-0.12v5.04
			c-0.7,0.16-1.88,0.28-3.26,0.28c-5.91,0-8.2-1.97-8.2-6.87v-13.2h-3.54v-5.16h3.54v-5.79H-149.71z"/>
		<path d="M-118.75-175.69c-0.75,4.92-5.25,8.23-11.46,8.23c-7.73,0-12.38-4.95-12.38-12.98c0-8.02,4.69-13.22,12.12-13.22
			c7.31,0,11.93,4.95,11.93,12.59v2.09h-17.32v0.42c0,3.59,2.27,6.05,5.77,6.05c2.51,0,4.43-1.24,5.06-3.16H-118.75z
			 M-135.79-183.19h10.66c-0.14-3.21-2.23-5.41-5.27-5.41C-133.39-188.6-135.55-186.33-135.79-183.19z"/>
		<path d="M-115.93-180.61c0-7.97,3.98-12.91,10.29-12.91c3.63,0,6.45,1.92,7.66,4.71h0.14v-13.01H-91V-168h-6.75v-4.31h-0.12
			c-1.22,2.77-4.12,4.71-7.83,4.71C-111.97-167.6-115.93-172.57-115.93-180.61z M-108.93-180.56c0,4.62,2.11,7.45,5.55,7.45
			c3.4,0,5.58-2.86,5.58-7.45c0-4.57-2.18-7.48-5.58-7.48C-106.82-188.04-108.93-185.15-108.93-180.56z"/>
		<path d="M-85.75-171.49c0-2.11,1.66-3.77,3.77-3.77c2.09,0,3.77,1.66,3.77,3.77c0,2.09-1.69,3.77-3.77,3.77
			C-84.08-167.72-85.75-169.4-85.75-171.49z"/>
	</g>
	<text transform="matrix(1 0 0 1 -336.5275 -145.8539)" class="st2" style="font-family:'SFProDisplay-Thin'; font-size:18px;">voicing the signals that matter</text>
</g>
</svg>
