<?xml version="1.0" encoding="utf-8"?>
<!-- Generator: Adobe Illustrator 24.1.2, SVG Export Plug-In . SVG Version: 6.00 Build 0)  -->
<svg version="1.1" xmlns="http://www.w3.org/2000/svg" xmlns:xlink="http://www.w3.org/1999/xlink" x="0px" y="0px"
	 viewBox="0 0 14400 14400" style="enable-background:new 0 0 14400 14400;" xml:space="preserve">
<style type="text/css">
	.st0{display:none;}
	.st1{display:inline;fill:#ED1C24;}
	.st2{display:inline;}
	.st3{fill:#FFFFFF;}
	.st4{font-family:'SFProDisplay-Thin';}
	.st5{font-size:18px;}
</style>
<g id="Layer_1">
	<g>
		<path d="M7007.09,7222.08h-48.59v-75.15h15.73v62.13h32.86V7222.08z"/>
		<path d="M7065.27,7204.99c-1.67,10.94-11.67,18.28-25.47,18.28c-17.19,0-27.5-10.99-27.5-28.85c0-17.81,10.42-29.37,26.92-29.37
			c16.25,0,26.51,10.99,26.51,27.97v4.63h-38.49v0.94c0,7.97,5.05,13.44,12.81,13.44c5.57,0,9.84-2.76,11.25-7.03H7065.27z
			 M7027.41,7188.33h23.7c-0.31-7.13-4.95-12.03-11.72-12.03C7032.72,7176.3,7027.93,7181.35,7027.41,7188.33z"/>
		<path d="M7071.42,7206.04c0-10.16,7.81-16.04,21.72-16.87l14.06-0.83v-3.7c0-5.21-3.65-8.23-9.37-8.23c-5.68,0-9.27,2.81-10,6.93
			h-13.9c0.57-10.83,9.79-18.28,24.58-18.28c14.32,0,23.64,7.4,23.64,18.64v38.38h-14.69v-8.54h-0.31
			c-3.12,5.94-10.05,9.43-17.03,9.43C7079.49,7222.96,7071.42,7216.09,7071.42,7206.04z M7107.19,7201.61v-4.06l-11.77,0.73
			c-5.68,0.42-8.91,2.97-8.91,6.93c0,4.17,3.44,6.77,8.59,6.77C7101.73,7211.97,7107.19,7207.65,7107.19,7201.61z"/>
		<path d="M7131.94,7166.25h14.69v10.05h0.31c1.98-7.08,6.72-10.94,13.28-10.94c1.77,0,3.28,0.26,4.32,0.57v13.38
			c-1.25-0.52-3.33-0.89-5.52-0.89c-7.5,0-11.87,4.58-11.87,12.45v31.19h-15.21V7166.25z"/>
		<path d="M7170.74,7166.25h14.69v9.95h0.31c2.97-6.93,8.85-10.99,17.45-10.99c12.39,0,19.37,7.81,19.37,20.88v35.99h-15.21v-32.81
			c0-7.29-3.44-11.46-10.26-11.46s-11.14,5-11.14,12.24v32.03h-15.21V7166.25z"/>
		<path d="M7232.09,7150.88c0-4.32,3.49-7.81,7.92-7.81s7.92,3.49,7.92,7.81c0,4.27-3.49,7.81-7.92,7.81
			S7232.09,7155.15,7232.09,7150.88z M7232.46,7166.25h15.21v55.83h-15.21V7166.25z"/>
		<path d="M7257.77,7166.25h14.69v9.95h0.31c2.97-6.93,8.85-10.99,17.45-10.99c12.39,0,19.37,7.81,19.37,20.88v35.99h-15.21v-32.81
			c0-7.29-3.44-11.46-10.26-11.46s-11.14,5-11.14,12.24v32.03h-15.21V7166.25z"/>
		<path d="M7318.91,7226.03h14.89c1.2,3.85,5.57,6.46,11.35,6.46c7.86,0,12.24-4.32,12.24-10.78v-9.79h-0.31
			c-2.6,5.94-9.17,10-17.24,10c-13.64,0-22.65-10.52-22.65-27.97c0-17.71,8.75-28.59,22.91-28.59c8.02,0,14.32,4.22,17.24,10.62
			h0.26v-9.74h15v55.05c0,13.28-11.14,21.82-27.86,21.82C7330.06,7243.11,7320.11,7235.98,7318.91,7226.03z M7357.45,7194.06
			c0-10.05-4.84-16.51-12.45-16.51c-7.5,0-12.24,6.35-12.24,16.51c0,10.21,4.69,16.14,12.24,16.14
			C7352.61,7210.2,7357.45,7204.16,7357.45,7194.06z"/>
	</g>
	<g>
		<path d="M7409.05,7143.6c-5.49,6.96-10.2,9.79-16.22,9.79c-9.26,0-16.07-6.62-16.07-15.69c0-9.11,6.89-15.85,16.15-15.85
			c6.02,0,10.73,2.82,16.3,9.86c5.34-6.89,10.16-9.79,16.22-9.79c9.3,0,16.07,6.66,16.07,15.7c0,9.07-6.89,15.85-16.15,15.85
			C7419.44,7153.46,7414.81,7150.68,7409.05,7143.6z M7385.19,7137.66c0,4.52,3.5,7.9,8.13,7.9c3.76,0,6.85-2.22,11.14-7.94
			c-4.7-5.87-7.53-7.9-11.14-7.9C7388.69,7129.71,7385.19,7133.14,7385.19,7137.66z M7424.97,7129.71c-3.8,0-6.96,2.26-11.18,7.98
			c4.78,5.91,7.56,7.87,11.14,7.87c4.63,0,8.13-3.42,8.13-7.94C7433.07,7133.1,7429.6,7129.71,7424.97,7129.71z"/>
	</g>
</g>
<g id="Layer_2" class="st0">
	<rect x="6576.95" y="6945.11" class="st1" width="47.1" height="34.36"/>
	<g class="st2">
		<path class="st3" d="M6576.95,6966.74c0-7.5,4.27-12.56,10.36-12.56c4.52,0,8.04,2.98,9.12,6.77h0.05v-15.84h1.83v33.82h-1.71
			v-6.54h-0.07c-1.12,3.94-4.66,6.91-9.19,6.91C6581.24,6979.3,6576.95,6974.24,6576.95,6966.74z M6578.78,6966.72
			c0,6.54,3.61,10.95,8.79,10.95c5.23,0,8.93-4.45,8.93-10.92s-3.7-10.92-8.93-10.92
			C6582.39,6955.82,6578.78,6960.2,6578.78,6966.72z"/>
		<path class="st3" d="M6623.55,6972.11c-0.82,4.12-4.52,7.2-9.96,7.2c-6.63,0-10.88-4.66-10.88-12.54
			c0-7.57,4.24-12.59,10.69-12.59c6.3,0,10.45,4.76,10.45,11.84v1.03h-19.29v0.09c0,6.63,3.59,10.55,9.05,10.55
			c4.48,0,7.38-2.39,8.11-5.58H6623.55z M6604.59,6965.52h17.39c-0.02-5.77-3.47-9.73-8.6-9.73
			C6608.31,6955.8,6604.84,6959.71,6604.59,6965.52z"/>
		<path d="M6644.01,6963.16c-0.4-2.65-2.16-4.52-4.97-4.52c-3.38,0-5.48,2.86-5.48,7.71c0,4.95,2.11,7.76,5.51,7.76
			c2.74,0,4.52-1.64,4.95-4.38h6.38c-0.35,5.93-4.78,9.75-11.39,9.75c-7.57,0-12.38-4.92-12.38-13.12c0-8.06,4.8-13.08,12.33-13.08
			c6.8,0,11.11,4.2,11.41,9.89H6644.01z"/>
		<path d="M6652.77,6966.34c0-8.13,4.92-13.08,12.45-13.08s12.45,4.92,12.45,13.08c0,8.27-4.85,13.12-12.45,13.12
			S6652.77,6974.59,6652.77,6966.34z M6670.7,6966.37c0-4.99-2.16-7.88-5.48-7.88s-5.51,2.88-5.51,7.88c0,5.04,2.13,7.88,5.51,7.88
			C6668.57,6974.24,6670.7,6971.41,6670.7,6966.37z"/>
		<path d="M6681.18,6953.8h6.61v4.48h0.14c1.34-3.12,3.98-4.95,7.85-4.95c5.58,0,8.72,3.52,8.72,9.4v16.2h-6.84v-14.77
			c0-3.28-1.55-5.16-4.62-5.16s-5.02,2.25-5.02,5.51v14.41h-6.84V6953.8z"/>
		<path d="M6723.06,6978.93h-7.73l-8.7-25.12h7.34l5.23,19.08h0.14l5.2-19.08h7.15L6723.06,6978.93z"/>
		<path d="M6732.44,6966.34c0-8.13,4.92-13.08,12.45-13.08s12.45,4.92,12.45,13.08c0,8.27-4.85,13.12-12.45,13.12
			S6732.44,6974.59,6732.44,6966.34z M6750.37,6966.37c0-4.99-2.16-7.88-5.48-7.88s-5.51,2.88-5.51,7.88c0,5.04,2.13,7.88,5.51,7.88
			C6748.23,6974.24,6750.37,6971.41,6750.37,6966.37z"/>
		<path d="M6761.01,6945.11h6.84v33.82h-6.84V6945.11z"/>
		<path d="M6795.67,6978.93h-6.61v-4.52h-0.14c-1.24,3.16-3.73,4.99-7.52,4.99c-5.44,0-9.05-3.54-9.05-9.4v-16.2h6.84v14.77
			c0,3.35,1.66,5.13,4.69,5.13c3.05,0,4.95-2.18,4.95-5.51v-14.39h6.84V6978.93z"/>
		<path d="M6808.8,6948.01v5.79h4.64v5.16h-4.64v12.02c0,1.92,0.94,2.84,2.95,2.84c0.61,0,1.24-0.05,1.66-0.12v5.04
			c-0.7,0.16-1.88,0.28-3.26,0.28c-5.91,0-8.2-1.97-8.2-6.87v-13.2h-3.54v-5.16h3.54v-5.79H6808.8z"/>
		<path d="M6839.76,6971.24c-0.75,4.92-5.25,8.23-11.46,8.23c-7.73,0-12.38-4.95-12.38-12.98c0-8.02,4.69-13.22,12.12-13.22
			c7.31,0,11.93,4.95,11.93,12.59v2.09h-17.32v0.42c0,3.59,2.27,6.05,5.77,6.05c2.51,0,4.43-1.24,5.06-3.16H6839.76z
			 M6822.72,6963.74h10.66c-0.14-3.21-2.23-5.41-5.27-5.41C6825.11,6958.33,6822.95,6960.6,6822.72,6963.74z"/>
		<path d="M6842.57,6966.32c0-7.97,3.98-12.91,10.29-12.91c3.63,0,6.45,1.92,7.66,4.71h0.14v-13.01h6.84v33.82h-6.75v-4.31h-0.12
			c-1.22,2.77-4.12,4.71-7.83,4.71C6846.53,6979.33,6842.57,6974.36,6842.57,6966.32z M6849.58,6966.37c0,4.62,2.11,7.45,5.55,7.45
			c3.4,0,5.58-2.86,5.58-7.45c0-4.57-2.18-7.48-5.58-7.48C6851.69,6958.89,6849.58,6961.77,6849.58,6966.37z"/>
		<path d="M6872.76,6975.44c0-2.11,1.66-3.77,3.77-3.77c2.09,0,3.77,1.66,3.77,3.77c0,2.09-1.69,3.77-3.77,3.77
			C6874.42,6979.21,6872.76,6977.52,6872.76,6975.44z"/>
	</g>
	<text transform="matrix(1 0 0 1 6621.9761 7001.0723)" class="st2 st4 st5">voicing the signals that matter</text>
</g>
</svg>
