<?xml version="1.0" encoding="utf-8"?>
<!-- Generator: Adobe Illustrator 24.1.2, SVG Export Plug-In . SVG Version: 6.00 Build 0)  -->
<svg version="1.1" id="Layer_1" xmlns="http://www.w3.org/2000/svg" xmlns:xlink="http://www.w3.org/1999/xlink" x="0px" y="0px"
	 viewBox="0 0 36.8 36.8" style="enable-background:new 0 0 36.8 36.8;" xml:space="preserve">
<style type="text/css">
	.st0{display:none;}
	.st1{display:inline;fill:#ED1C24;}
	.st2{display:inline;}
	.st3{fill:#FFFFFF;}
</style>
<g id="Layer_1_1_">
	<g>
		<path d="M-210.3,65.1h-27.6V22.4h8.9v35.3h18.7V65.1z"/>
		<path d="M-177.2,55.4c-0.9,6.2-6.6,10.4-14.5,10.4c-9.8,0-15.6-6.3-15.6-16.4c0-10.1,5.9-16.7,15.3-16.7c9.2,0,15.1,6.3,15.1,15.9
			v2.6h-21.9v0.5c0,4.5,2.9,7.6,7.3,7.6c3.2,0,5.6-1.6,6.4-4L-177.2,55.4L-177.2,55.4z M-198.7,45.9h13.5c-0.2-4.1-2.8-6.8-6.7-6.8
			C-195.7,39.1-198.4,41.9-198.7,45.9z"/>
		<path d="M-173.7,56c0-5.8,4.4-9.1,12.4-9.6l8-0.5v-2.1c0-3-2.1-4.7-5.3-4.7c-3.2,0-5.3,1.6-5.7,3.9h-7.9c0.3-6.2,5.6-10.4,14-10.4
			c8.1,0,13.4,4.2,13.4,10.6v21.8h-8.4v-4.9h-0.2c-1.8,3.4-5.7,5.4-9.7,5.4C-169.1,65.6-173.7,61.7-173.7,56z M-153.4,53.5v-2.3
			l-6.7,0.4c-3.2,0.2-5.1,1.7-5.1,3.9c0,2.4,2,3.9,4.9,3.9C-156.5,59.4-153.4,56.9-153.4,53.5z"/>
		<path d="M-139.3,33.4h8.4v5.7h0.2c1.1-4,3.8-6.2,7.6-6.2c1,0,1.9,0.1,2.5,0.3v7.6c-0.7-0.3-1.9-0.5-3.1-0.5
			c-4.3,0-6.8,2.6-6.8,7.1v17.7h-8.7L-139.3,33.4L-139.3,33.4z"/>
		<path d="M-117.2,33.4h8.4V39h0.2c1.7-3.9,5-6.3,9.9-6.3c7,0,11,4.4,11,11.9v20.5h-8.7V46.4c0-4.1-2-6.5-5.8-6.5s-6.3,2.8-6.3,7
			v18.2h-8.7L-117.2,33.4L-117.2,33.4z"/>
		<path d="M-82.3,24.6c0-2.5,2-4.4,4.5-4.4c2.5,0,4.5,2,4.5,4.4c0,2.4-2,4.4-4.5,4.4C-80.3,29.1-82.3,27-82.3,24.6z M-82.1,33.4h8.7
			v31.8h-8.7V33.4z"/>
		<path d="M-67.7,33.4h8.4V39h0.2c1.7-3.9,5-6.3,9.9-6.3c7,0,11,4.4,11,11.9v20.5h-8.7V46.4c0-4.1-2-6.5-5.8-6.5s-6.3,2.8-6.3,7
			v18.2h-8.7L-67.7,33.4L-67.7,33.4z"/>
		<path d="M-32.9,67.4h8.5c0.7,2.2,3.2,3.7,6.5,3.7c4.5,0,7-2.5,7-6.1v-5.6h-0.2c-1.5,3.4-5.2,5.7-9.8,5.7c-7.8,0-12.9-6-12.9-15.9
			c0-10.1,5-16.3,13-16.3c4.6,0,8.1,2.4,9.8,6h0.1v-5.5h8.5v31.3c0,7.6-6.3,12.4-15.8,12.4C-26.6,77.1-32.2,73-32.9,67.4z M-11,49.2
			c0-5.7-2.8-9.4-7.1-9.4c-4.3,0-7,3.6-7,9.4c0,5.8,2.7,9.2,7,9.2C-13.7,58.4-11,54.9-11,49.2z"/>
	</g>
	<g>
		<path d="M18.4,20.5c-3.1,4-5.8,5.6-9.2,5.6C3.9,26,0,22.3,0,17.1c0-5.2,3.9-9,9.2-9c3.4,0,6.1,1.6,9.3,5.6c3-3.9,5.8-5.6,9.2-5.6
			c5.3,0,9.1,3.8,9.1,8.9c0,5.2-3.9,9-9.2,9C24.3,26.1,21.6,24.5,18.4,20.5z M4.8,17.1c0,2.6,2,4.5,4.6,4.5c2.1,0,3.9-1.3,6.3-4.5
			c-2.7-3.3-4.3-4.5-6.3-4.5C6.8,12.6,4.8,14.5,4.8,17.1z M27.4,12.6c-2.2,0-4,1.3-6.4,4.5c2.7,3.4,4.3,4.5,6.3,4.5
			c2.6,0,4.6-1.9,4.6-4.5C32,14.5,30.1,12.6,27.4,12.6z"/>
	</g>
</g>
<g id="Layer_2_1_" class="st0">
	<rect x="-455" y="-92.5" class="st1" width="26.8" height="19.5"/>
	<g class="st2">
		<path class="st3" d="M-455-80.1c0-4.3,2.4-7.1,5.9-7.1c2.6,0,4.6,1.7,5.2,3.9h0v-9h1v19.2h-1v-3.7h0c-0.6,2.2-2.7,3.9-5.2,3.9
			C-452.6-73-455-75.9-455-80.1z M-454-80.2c0,3.7,2.1,6.2,5,6.2c3,0,5.1-2.5,5.1-6.2s-2.1-6.2-5.1-6.2
			C-451.9-86.4-454-83.9-454-80.2z"/>
		<path class="st3" d="M-428.5-77.1c-0.5,2.3-2.6,4.1-5.7,4.1c-3.8,0-6.2-2.7-6.2-7.1c0-4.3,2.4-7.2,6.1-7.2c3.6,0,5.9,2.7,5.9,6.7
			v0.6h-11v0.1c0,3.8,2,6,5.1,6c2.5,0,4.2-1.4,4.6-3.2L-428.5-77.1L-428.5-77.1z M-439.3-80.8h9.9c0-3.3-2-5.5-4.9-5.5
			C-437.2-86.4-439.1-84.1-439.3-80.8z"/>
		<path d="M-416.9-82.2c-0.2-1.5-1.2-2.6-2.8-2.6c-1.9,0-3.1,1.6-3.1,4.4c0,2.8,1.2,4.4,3.1,4.4c1.6,0,2.6-0.9,2.8-2.5h3.6
			c-0.2,3.4-2.7,5.5-6.5,5.5c-4.3,0-7-2.8-7-7.5c0-4.6,2.7-7.4,7-7.4c3.9,0,6.3,2.4,6.5,5.6L-416.9-82.2L-416.9-82.2z"/>
		<path d="M-411.9-80.4c0-4.6,2.8-7.4,7.1-7.4c4.3,0,7.1,2.8,7.1,7.4c0,4.7-2.8,7.5-7.1,7.5S-411.9-75.7-411.9-80.4z M-401.7-80.4
			c0-2.8-1.2-4.5-3.1-4.5s-3.1,1.6-3.1,4.5c0,2.9,1.2,4.5,3.1,4.5C-402.9-75.9-401.7-77.5-401.7-80.4z"/>
		<path d="M-395.7-87.5h3.8v2.5h0.1c0.8-1.8,2.3-2.8,4.5-2.8c3.2,0,5,2,5,5.3v9.2h-3.9v-8.4c0-1.9-0.9-2.9-2.6-2.9
			c-1.7,0-2.9,1.3-2.9,3.1v8.2h-3.9L-395.7-87.5L-395.7-87.5z"/>
		<path d="M-371.9-73.2h-4.4l-4.9-14.3h4.2l3,10.9h0.1l3-10.9h4.1L-371.9-73.2z"/>
		<path d="M-366.5-80.4c0-4.6,2.8-7.4,7.1-7.4c4.3,0,7.1,2.8,7.1,7.4c0,4.7-2.8,7.5-7.1,7.5S-366.5-75.7-366.5-80.4z M-356.3-80.4
			c0-2.8-1.2-4.5-3.1-4.5s-3.1,1.6-3.1,4.5c0,2.9,1.2,4.5,3.1,4.5C-357.6-75.9-356.3-77.5-356.3-80.4z"/>
		<path d="M-350.3-92.5h3.9v19.2h-3.9V-92.5z"/>
		<path d="M-330.6-73.2h-3.8v-2.6h-0.1c-0.7,1.8-2.1,2.8-4.3,2.8c-3.1,0-5.1-2-5.1-5.3v-9.2h3.9v8.4c0,1.9,0.9,2.9,2.7,2.9
			c1.7,0,2.8-1.2,2.8-3.1v-8.2h3.9V-73.2z"/>
		<path d="M-323.1-90.8v3.3h2.6v2.9h-2.6v6.8c0,1.1,0.5,1.6,1.7,1.6c0.3,0,0.7,0,0.9-0.1v2.9c-0.4,0.1-1.1,0.2-1.9,0.2
			c-3.4,0-4.7-1.1-4.7-3.9v-7.5h-2v-2.9h2v-3.3L-323.1-90.8L-323.1-90.8z"/>
		<path d="M-305.5-77.6c-0.4,2.8-3,4.7-6.5,4.7c-4.4,0-7-2.8-7-7.4c0-4.6,2.7-7.5,6.9-7.5c4.2,0,6.8,2.8,6.8,7.2v1.2h-9.9v0.2
			c0,2,1.3,3.4,3.3,3.4c1.4,0,2.5-0.7,2.9-1.8L-305.5-77.6L-305.5-77.6z M-315.2-81.9h6.1c-0.1-1.8-1.3-3.1-3-3.1
			C-313.8-84.9-315.1-83.6-315.2-81.9z"/>
		<path d="M-303.9-80.4c0-4.5,2.3-7.3,5.9-7.3c2.1,0,3.7,1.1,4.4,2.7h0.1v-7.4h3.9v19.2h-3.8v-2.5h-0.1c-0.7,1.6-2.3,2.7-4.5,2.7
			C-301.6-73-303.9-75.8-303.9-80.4z M-299.9-80.4c0,2.6,1.2,4.2,3.2,4.2c1.9,0,3.2-1.6,3.2-4.2c0-2.6-1.2-4.3-3.2-4.3
			C-298.7-84.6-299.9-83-299.9-80.4z"/>
		<path d="M-286.7-75.2c0-1.2,0.9-2.1,2.1-2.1c1.2,0,2.1,0.9,2.1,2.1c0,1.2-1,2.1-2.1,2.1C-285.8-73.1-286.7-74-286.7-75.2z"/>
	</g>
	<text transform="matrix(1 0 0 1 -429.3878 -60.614)" class="st2" style="font-family:'SFProDisplay-Thin'; font-size:10.24px;">voicing the signals that matter</text>
</g>
</svg>
