<svg id="Layer_1" data-name="Layer 1" xmlns="http://www.w3.org/2000/svg" viewBox="0 0 482.99 121.27"><path d="M48.59,98.86H0V23.71H15.73V85.84H48.59Z" transform="translate(0 1.37)"/><path d="M106.76,81.78C105.1,92.72,95.1,100.06,81.3,100.06c-17.19,0-27.5-11-27.5-28.85S64.22,41.83,80.73,41.83c16.24,0,26.5,11,26.5,28v4.64H68.75v.93c0,8,5,13.44,12.81,13.44,5.57,0,9.84-2.76,11.25-7ZM68.9,65.11H92.6c-.31-7.13-4.95-12-11.72-12S69.42,58.14,68.9,65.11Z" transform="translate(0 1.37)"/><path d="M112.91,82.82c0-10.15,7.82-16,21.72-16.87l14.06-.84V61.42c0-5.21-3.64-8.23-9.37-8.23s-9.27,2.81-10,6.92H115.41C116,49.28,125.2,41.83,140,41.83c14.33,0,23.65,7.4,23.65,18.65V98.86H149V90.32h-.31c-3.13,5.94-10,9.43-17,9.43C121,99.75,112.91,92.87,112.91,82.82Zm35.78-4.43V74.33l-11.77.73c-5.67.42-8.9,3-8.9,6.93,0,4.16,3.43,6.77,8.59,6.77C143.22,88.76,148.69,84.43,148.69,78.39Z" transform="translate(0 1.37)"/><path d="M173.43,43h14.69v10h.31c2-7.08,6.72-10.93,13.28-10.93a15.57,15.57,0,0,1,4.32.57V56.1a15.67,15.67,0,0,0-5.52-.88c-7.5,0-11.87,4.58-11.87,12.45V98.86H173.43Z" transform="translate(0 1.37)"/><path d="M212.23,43h14.69V53h.31c3-6.93,8.86-11,17.45-11,12.39,0,19.37,7.81,19.37,20.88v36h-15.2V66.05c0-7.29-3.44-11.46-10.26-11.46s-11.15,5-11.15,12.24v32H212.23Z" transform="translate(0 1.37)"/><path d="M273.59,27.67a7.92,7.92,0,1,1,7.91,7.81A7.82,7.82,0,0,1,273.59,27.67ZM274,43h15.21V98.86H274Z" transform="translate(0 1.37)"/><path d="M299.26,43H314V53h.31c3-6.93,8.86-11,17.45-11,12.39,0,19.37,7.81,19.37,20.88v36h-15.2V66.05c0-7.29-3.44-11.46-10.26-11.46s-11.15,5-11.15,12.24v32H299.26Z" transform="translate(0 1.37)"/><path d="M360.41,102.82H375.3c1.2,3.85,5.58,6.46,11.36,6.46,7.86,0,12.23-4.33,12.23-10.78V88.71h-.31c-2.6,5.93-9.16,10-17.24,10-13.64,0-22.65-10.52-22.65-28,0-17.71,8.75-28.59,22.91-28.59,8,0,14.33,4.22,17.24,10.62h.26V43h15V98.08c0,13.28-11.14,21.82-27.86,21.82C371.55,119.9,361.61,112.77,360.41,102.82Zm38.54-32c0-10.05-4.85-16.51-12.45-16.51s-12.24,6.36-12.24,16.51S379,87,386.5,87,399,81,399,70.84Z" transform="translate(0 1.37)"/><path d="M450.55,20.39c-5.5,7-10.2,9.78-16.22,9.78-9.26,0-16.07-6.62-16.07-15.69S425.14-1.37,434.4-1.37c6,0,10.73,2.83,16.3,9.86,5.34-6.88,10.16-9.78,16.22-9.78,9.3,0,16.07,6.66,16.07,15.69s-6.88,15.85-16.14,15.85C460.94,30.25,456.31,27.46,450.55,20.39Zm-23.86-6a7.83,7.83,0,0,0,8.13,7.9c3.76,0,6.85-2.22,11.14-7.94-4.71-5.87-7.53-7.9-11.14-7.9A7.87,7.87,0,0,0,426.69,14.44ZM466.47,6.5c-3.8,0-7,2.26-11.18,8,4.78,5.91,7.57,7.86,11.14,7.86a7.87,7.87,0,0,0,8.13-7.94A7.81,7.81,0,0,0,466.47,6.5Z" transform="translate(0 1.37)"/></svg>